<svg xmlns="http://www.w3.org/2000/svg" width="36" height="144" viewBox="0 0 36 144"><path fill="none" d="M12.35 16.254H8.665c-.933 0-1.685.626-1.685 1.56v.204c0 .934.75 1.848 1.685 1.848h18.478c.933 0 1.51-.915 1.51-1.848v-.204c0-.934-.577-1.56-1.51-1.56H12.35z"/><path fill="#eee" d="M30.752 5.248C27.186 1.682 22.49-.062 17.817.006v16.25h9.327c.933 0 1.51.625 1.51 1.56v.203c0 .93-.577 1.84-1.51 1.84h-9.327v15.96c4.673.07 9.37-1.676 12.935-5.24 6.997-7 6.997-18.344 0-25.34z"/><path fill="#fff" d="M16.292 19.866H8.665c-.933 0-1.685-.915-1.685-1.848v-.204c0-.934.75-1.56 1.685-1.56h9.15V0C13.483 0 8.78 1.75 5.282 5.248c-6.996 6.997-7.063 18.34-.066 25.338 3.5 3.5 8.268 5.247 12.603 5.247V19.867h-1.53z"/><path fill="none" d="M12.35 52H8.665C7.732 52 7 52.632 7 53.565v.204C7 54.7 7.732 56 8.665 56h18.478C28.077 56 29 54.702 29 53.77v-.204c0-.934-.923-1.566-1.855-1.566H12.35z"/><path fill="#999" d="M30.844 40.998C27.277 37.433 22 35.688 18 35.758V52h9.144c.933 0 1.856.632 1.856 1.565v.204c0 .93-.923 2.23-1.855 2.23H18v15.57c4 .07 9.323-1.678 12.89-5.24 6.997-7 6.95-18.34-.046-25.34z"/><path fill="#aaa" d="M16.292 56H8.665C7.732 56 7 54.702 7 53.77v-.204C7 52.632 7.732 52 8.665 52H18V35.75c-5 0-9.13 1.75-12.627 5.248-6.997 6.997-7.02 18.342-.02 25.338C8.85 69.836 13 71.584 18 71.584V56h-1.708z"/><path fill="none" d="M12.35 88H8.665C7.732 88 7 89.007 7 89.94v.204C7 91.077 7.732 92 8.665 92h18.478c.934 0 1.857-.923 1.857-1.855v-.205c0-.934-.923-1.94-1.855-1.94H12.35z"/><path fill="#D71A21" d="M30.844 77.373C27.277 73.808 22 72.063 18 72.133V88h9.144C28.077 88 29 89.007 29 89.94v.204c0 .933-.923 1.856-1.855 1.856H18v15.952c4 .07 9.323-1.675 12.89-5.24 6.997-6.997 6.95-18.342-.046-25.34z"/><path fill="#E2404C" d="M16.292 92H8.665C7.732 92 7 91.077 7 90.145v-.205c0-.933.732-1.94 1.665-1.94H18V72.126c-5 0-9.13 1.75-12.627 5.247-6.997 6.997-7.02 18.342-.02 25.338C8.85 106.21 13 107.96 18 107.96V92h-1.708z"/><path fill="none" d="M12.236 124H8.55c-.93 0-1.55 1.048-1.55 1.98v.205c0 .934.618 1.815 1.55 1.815h18.48c.933 0 1.97-.88 1.97-1.814v-.204c0-.934-1.037-1.98-1.97-1.98H12.236z"/><path fill="#1F1F1F" d="M30.787 113.414C27.22 109.85 22 108.104 18 108.174V124h9.03c.933 0 1.97 1.048 1.97 1.98v.205c0 .934-1.037 1.814-1.97 1.814H18v15.99c4 .07 9.295-1.68 12.86-5.24 6.998-7 6.923-18.34-.073-25.34z"/><path fill="#444" d="M16.177 128H8.55c-.932 0-1.55-.88-1.55-1.814v-.204c0-.934.618-1.982 1.55-1.982H18v-15.833c-5 0-9.186 1.75-12.684 5.247-6.997 6.997-6.99 18.342.007 25.338C8.82 142.252 13 144 18 144v-16h-1.823z"/></svg>