<svg xmlns="http://www.w3.org/2000/svg" width="68" height="272" viewBox="0 0 68 272"><path fill="#eee" d="M62.32 54.565L68 38H26.896c-1.52 0-2.438-1.05-3.326-1.96-.966-.995-1.88-2.04-3.59-2.04h-5.602l-6.166-1.576L0 32.477l12.845 21.997c.355.106.737.185 1.166.185 1.39 0 2.08-.53 2.8-1.1.79-.62 1.6-1.25 3.21-1.25 1.62 0 2.43.64 3.21 1.26.73.57 1.41 1.11 2.8 1.11s2.07-.54 2.8-1.11c.786-.62 1.596-1.26 3.21-1.26 1.62 0 2.43.64 3.216 1.26.726.57 1.41 1.11 2.797 1.11 1.388 0 2.073-.54 2.8-1.113.78-.618 1.593-1.258 3.21-1.258 1.62 0 2.43.64 3.213 1.257.723.574 1.41 1.115 2.795 1.115 1.39 0 2.074-.54 2.8-1.113.783-.618 1.594-1.258 3.21-1.258s2.43.64 3.21 1.258c.728.574 1.41 1.06 2.8 1.06l.236-.066zm-4.017-12.008c0 .683-.555 1.238-1.237 1.238s-1.237-.555-1.237-1.238.55-1.236 1.23-1.236 1.235.56 1.235 1.24zm-4.537 0c0 .683-.557 1.238-1.238 1.238s-1.237-.555-1.237-1.238.56-1.236 1.24-1.236 1.24.56 1.24 1.24zm-4.538 0c0 .683-.556 1.238-1.238 1.238s-1.237-.555-1.237-1.238.555-1.236 1.237-1.236 1.238.56 1.238 1.24zm-4.54 0c0 .683-.555 1.238-1.236 1.238-.683 0-1.238-.555-1.238-1.238s.556-1.236 1.238-1.236c.682 0 1.237.56 1.237 1.24zm-4.537 0c0 .683-.55 1.238-1.23 1.238s-1.235-.555-1.235-1.238.556-1.236 1.237-1.236 1.237.56 1.237 1.24zm-4.53 0c0 .683-.554 1.238-1.24 1.238-.68 0-1.24-.555-1.24-1.238s.56-1.236 1.24-1.236c.685 0 1.24.56 1.24 1.24zm-4.54 0c0 .683-.552 1.238-1.234 1.238-.683 0-1.24-.555-1.24-1.238s.557-1.236 1.24-1.236c.68 0 1.237.56 1.237 1.24zm-4.534 0c0 .683-.555 1.238-1.24 1.238-.68 0-1.236-.555-1.236-1.238s.555-1.236 1.237-1.236c.684 0 1.24.56 1.24 1.24zM11.08 37.88c0 .88-.715 1.595-1.595 1.595S7.89 38.76 7.89 37.88s.716-1.595 1.595-1.595c.88 0 1.594.716 1.594 1.595zM61 36v.473C61 34.875 59.834 33 58.343 32h-25.99c-.535 0-.97-.515-.97-1s.435-1 .97-1h16.823c-.5-1-2.018-2-3.75-2h-24.9C18.366 28 16 30.05 16 32.215V32h3.98c2.402 0 3.767 1.51 4.762 2.533.846.87 1.363 1.467 2.154 1.467H61z"/><path fill="#fff" d="M37.91 19.52c2.414.64 4.09 3.33 4.09 5.857V26h2.51l2.812-11h-8.31l-1.1 4.52zm9.98-7.064c-.156-.2-.41-.456-.716-.456h-5.9c-.7 0-1.442.583-1.62 1.26l-.193.74h8.31l.24-.838c.08-.294.04-.507-.113-.706zM36.524 21h-6.767C27.595 21 26 23.214 26 25.377V26h14v-.623C40 23.214 38.69 21 36.525 21z"/><path fill="#999" d="M62.32 123.48L68 107H26.896c-1.52 0-2.438-1.05-3.326-1.96-.967-.994-1.88-2.04-3.592-2.04h-5.6l-6.167-1.662-8.21.01 12.85 21.976c.358.106.74.174 1.17.174 1.386 0 2.072-.533 2.797-1.105.784-.618 1.594-1.253 3.21-1.253 1.62 0 2.43.642 3.213 1.26.726.572 1.41 1.114 2.797 1.114 1.387 0 2.073-.54 2.798-1.112.784-.618 1.594-1.258 3.21-1.258 1.62 0 2.43.64 3.214 1.26.725.57 1.41 1.112 2.796 1.112 1.388 0 2.073-.54 2.8-1.113.782-.618 1.593-1.258 3.21-1.258 1.62 0 2.43.64 3.213 1.258.724.572 1.41 1.113 2.796 1.113 1.388 0 2.073-.54 2.8-1.113.782-.618 1.593-1.258 3.21-1.258s2.428.64 3.21 1.258c.727.572 1.41 1.1 2.798 1.1l.238-.024zm-4.017-12.095c0 .683-.555 1.238-1.237 1.238s-1.237-.555-1.237-1.238.55-1.236 1.23-1.236 1.235.55 1.235 1.23zm-4.537 0c0 .683-.557 1.238-1.238 1.238s-1.237-.555-1.237-1.238.56-1.236 1.24-1.236 1.24.55 1.24 1.23zm-4.538 0c0 .683-.556 1.238-1.238 1.238s-1.237-.555-1.237-1.238.555-1.236 1.237-1.236 1.238.55 1.238 1.23zm-4.54 0c0 .683-.555 1.238-1.236 1.238-.683 0-1.238-.555-1.238-1.238s.556-1.236 1.238-1.236c.682 0 1.237.55 1.237 1.23zm-4.537 0c0 .683-.55 1.238-1.23 1.238s-1.235-.555-1.235-1.238.556-1.236 1.237-1.236 1.237.55 1.237 1.23zm-4.53 0c0 .683-.554 1.238-1.24 1.238-.68 0-1.24-.555-1.24-1.238s.56-1.236 1.24-1.236c.685 0 1.24.55 1.24 1.23zm-4.54 0c0 .683-.552 1.238-1.234 1.238-.683 0-1.24-.555-1.24-1.238s.557-1.236 1.24-1.236c.68 0 1.237.55 1.237 1.23zm-4.534 0c0 .683-.555 1.238-1.24 1.238-.68 0-1.236-.555-1.236-1.238s.555-1.236 1.237-1.236c.684 0 1.24.55 1.24 1.23zm-15.46-4.676c0 .87-.714 1.59-1.594 1.59s-1.594-.72-1.594-1.6.717-1.595 1.596-1.595c.88 0 1.596.716 1.596 1.595zM61 105v.3c0-1.597-1.166-3.3-2.657-4.3h-25.99c-.535 0-.97-.515-.97-1s.435-1 .97-1h16.823c-.5-1-2.018-2-3.75-2h-24.9C18.366 97 16 98.88 16 101.043V101h3.98c2.402 0 3.767 1.51 4.762 2.533.847.87 1.363 1.467 2.155 1.467H61z"/><path fill="#aaa" d="M37.91 88.435c2.414.64 4.09 3.244 4.09 5.77V95h2.51l2.812-11h-8.31l-1.1 4.435zm9.98-7.065c-.156-.2-.41-.37-.716-.37h-5.9c-.7 0-1.442.583-1.62 1.26l-.193.74h8.31l.24-.88c.08-.295.04-.55-.113-.75zM36.524 90h-6.767C27.595 90 26 92.042 26 94.206V95h14v-.794C40 92.042 38.69 90 36.525 90z"/><path fill="#D71A21" d="M62.32 191.416L68 175H26.896c-1.52 0-2.438-1.05-3.326-1.96-.967-.995-1.88-2.04-3.592-2.04h-5.6l-6.167-1.727L0 169.25l12.845 21.96c.355.106.737.167 1.166.167 1.39 0 2.08-.537 2.8-1.11.79-.616 1.6-1.255 3.21-1.255 1.62 0 2.43.642 3.21 1.26.73.57 1.41 1.114 2.8 1.114s2.07-.542 2.8-1.114c.786-.617 1.596-1.258 3.21-1.258 1.62 0 2.43.64 3.216 1.258.726.572 1.41 1.113 2.797 1.113 1.388 0 2.073-.54 2.8-1.113.78-.617 1.593-1.258 3.21-1.258 1.62 0 2.43.64 3.213 1.258.723.572 1.41 1.113 2.795 1.113 1.39 0 2.074-.54 2.8-1.113.783-.617 1.594-1.258 3.21-1.258s2.43.64 3.21 1.258c.728.572 1.41 1.132 2.8 1.132l.236.012zm-4.017-12.16c0 .684-.555 1.238-1.237 1.238s-1.237-.555-1.237-1.238c0-.682.55-1.236 1.23-1.236s1.235.554 1.235 1.236zm-4.537 0c0 .684-.557 1.238-1.238 1.238s-1.237-.555-1.237-1.238c0-.682.56-1.236 1.24-1.236s1.24.554 1.24 1.236zm-4.538 0c0 .684-.556 1.238-1.238 1.238s-1.237-.555-1.237-1.238c0-.682.555-1.236 1.237-1.236s1.238.554 1.238 1.236zm-4.54 0c0 .684-.555 1.238-1.236 1.238-.683 0-1.238-.555-1.238-1.238 0-.682.556-1.236 1.238-1.236.682 0 1.237.554 1.237 1.236zm-4.537 0c0 .684-.55 1.238-1.23 1.238s-1.235-.555-1.235-1.238c0-.682.556-1.236 1.237-1.236s1.237.554 1.237 1.236zm-4.53 0c0 .684-.554 1.238-1.24 1.238-.68 0-1.24-.555-1.24-1.238 0-.682.56-1.236 1.24-1.236.685 0 1.24.554 1.24 1.236zm-4.54 0c0 .684-.552 1.238-1.234 1.238-.683 0-1.24-.555-1.24-1.238 0-.682.557-1.236 1.24-1.236.68 0 1.237.554 1.237 1.236zm-4.534 0c0 .684-.555 1.238-1.24 1.238-.68 0-1.236-.555-1.236-1.238 0-.682.555-1.236 1.237-1.236.684 0 1.24.554 1.24 1.236zm-15.46-4.676c0 .88-.714 1.596-1.594 1.596s-1.594-.717-1.594-1.596.717-1.596 1.596-1.596c.88 0 1.596.717 1.596 1.596zM61 173v.172c0-1.598-1.166-3.172-2.657-4.172h-25.99c-.535 0-.97-.514-.97-.998 0-.486.435-1.002.97-1.002h16.823c-.5-1-2.018-2-3.75-2h-24.9c-2.163 0-4.526 1.752-4.526 3.914V169h3.98c2.402 0 3.767 1.51 4.762 2.533.847.87 1.363 1.467 2.155 1.467H61z"/><path fill="#E2404C" d="M37.91 156.37c2.414.64 4.09 3.18 4.09 5.708V163h2.51l2.812-11h-8.31l-1.1 4.37zm9.98-7.063c-.156-.202-.41-.307-.716-.307h-5.9c-.7 0-1.442.582-1.62 1.26l-.193.74h8.31l.24-.913c.08-.295.04-.58-.113-.78zM36.524 158h-6.767c-2.164 0-3.76 1.914-3.76 4.078V163h14v-.922C40 159.914 38.69 158 36.527 158z"/><path fill="#1F1F1F" d="M62.32 258.613L68 242H26.896c-1.52 0-2.438-1.05-3.326-1.96-.967-.995-1.88-2.04-3.592-2.04h-5.6l-6.167-1.53-8.21.078 12.85 22.01c.358.104.74.19 1.17.19 1.386 0 2.072-.525 2.797-1.098.784-.617 1.594-1.25 3.21-1.25 1.62 0 2.43.646 3.213 1.263.726.572 1.41 1.116 2.797 1.116 1.387 0 2.073-.55 2.798-1.12.784-.62 1.594-1.26 3.21-1.26 1.62 0 2.43.64 3.214 1.258.725.572 1.41 1.113 2.796 1.113 1.388 0 2.073-.54 2.8-1.112.782-.615 1.593-1.256 3.21-1.256 1.62 0 2.43.64 3.213 1.257.724.574 1.41 1.115 2.796 1.115 1.388 0 2.073-.54 2.8-1.113.782-.615 1.593-1.256 3.21-1.256s2.428.64 3.21 1.257c.727.574 1.41 1.035 2.798 1.035l.238-.088zm-4.017-11.962c0 .69-.555 1.24-1.237 1.24s-1.237-.55-1.237-1.24c0-.68.55-1.23 1.23-1.23s1.235.558 1.235 1.24zm-4.537 0c0 .69-.557 1.24-1.238 1.24s-1.237-.55-1.237-1.24c0-.68.56-1.23 1.24-1.23s1.24.558 1.24 1.24zm-4.538 0c0 .69-.556 1.24-1.238 1.24s-1.237-.55-1.237-1.24c0-.68.555-1.23 1.237-1.23s1.238.558 1.238 1.24zm-4.54 0c0 .69-.555 1.24-1.236 1.24-.683 0-1.238-.55-1.238-1.24 0-.68.556-1.23 1.238-1.23.682 0 1.237.558 1.237 1.24zm-4.537 0c0 .69-.55 1.24-1.23 1.24s-1.235-.55-1.235-1.24c0-.68.556-1.23 1.237-1.23s1.237.558 1.237 1.24zm-4.53 0c0 .69-.554 1.24-1.24 1.24-.68 0-1.24-.55-1.24-1.24 0-.68.56-1.23 1.24-1.23.685 0 1.24.558 1.24 1.24zm-4.54 0c0 .69-.552 1.24-1.234 1.24-.683 0-1.24-.55-1.24-1.24 0-.68.557-1.23 1.24-1.23.68 0 1.237.558 1.237 1.24zm-4.534 0c0 .69-.555 1.24-1.24 1.24-.68 0-1.236-.55-1.236-1.24 0-.68.555-1.23 1.237-1.23.684 0 1.24.558 1.24 1.24zm-15.46-4.67c0 .88-.714 1.6-1.594 1.6s-1.594-.717-1.594-1.596.717-1.596 1.596-1.596c.88 0 1.596.718 1.596 1.597zM61 240v.567c0-1.598-1.166-3.567-2.657-4.567h-25.99c-.535 0-.97-.514-.97-.998 0-.486.435-1.002.97-1.002h16.823c-.5-1-2.018-2-3.75-2h-24.9c-2.163 0-4.526 2.147-4.526 4.31V236h3.98c2.402 0 3.767 1.51 4.762 2.533.847.87 1.363 1.467 2.155 1.467H61z"/><path fill="#444" d="M37.91 223.568c2.414.64 4.09 3.378 4.09 5.905V230h2.51l2.812-11h-8.31l-1.1 4.568zm9.98-7.064c-.156-.2-.41-.504-.716-.504h-5.9c-.7 0-1.442.582-1.62 1.26l-.193.74h8.31l.24-.814c.08-.295.04-.483-.113-.682zM36.524 225h-6.767c-2.164 0-3.76 2.31-3.76 4.474V230h14v-.526C40 227.31 38.69 225 36.527 225z"/></svg>