<svg xmlns="http://www.w3.org/2000/svg" width="100" height="200" viewBox="0 0 100 200"><circle fill="#eee" cx="50" cy="50" r="50"/><path fill="#444" d="M23.862 46.826c.198 6.27.05 11.893-1.898 15.383-.257.37.068 2.28.748 3.49 1.628 2.88 3.257 2.97 4.885.27.68-1.13.998-3 .734-3.42-2-3.75-2.13-9.538-1.9-15.89 1-.488 1.97-1.458 2.62-2.91 1.85-4.136.12-13.71-4.07-13.71-4.184 0-5.92 9.575-4.07 13.71.73 1.62 1.84 2.653 2.96 3.07m55.17-3.02c.398-.89.62-1.63.698-2.254.062-.14.098-.293.098-.455v-9.964c0-.623-.504-1.128-1.126-1.128-.624 0-1.13.504-1.13 1.127v7.682c-.44-.098-.94-.156-1.49-.19v-7.49c0-.625-.503-1.13-1.126-1.13-.622 0-1.127.505-1.127 1.13v7.49c-.55.034-1.05.093-1.484.19v-7.683c0-.623-.505-1.128-1.127-1.128-.624 0-1.128.504-1.128 1.127v9.965c0 .162.034.315.097.455.08.624.3 1.363.7 2.25.726 1.62 1.84 2.654 2.956 3.074.2 6.27.05 11.89-1.894 15.38-.26.38.066 2.287.746 3.495 1.628 2.88 3.258 2.97 4.885.27.68-1.13 1-3.002.735-3.414-2-3.752-2.13-9.54-1.9-15.89.994-.487 1.96-1.46 2.612-2.912"/><path fill="#1F1F1F" d="M32.628 48.987c0 9.845 7.98 17.824 17.823 17.824 9.85 0 17.83-7.97 17.83-17.82 0-9.84-7.98-17.82-17.82-17.82s-17.823 7.98-17.823 17.825m30.455 0c0 6.976-5.654 12.63-12.63 12.63-6.976 0-12.63-5.654-12.63-12.63S43.482 36.36 50.46 36.36c6.975 0 12.63 5.657 12.63 12.632"/><circle fill="#eee" cx="50" cy="150" r="50"/><path fill="#E2404C" d="M23.862 146.826c.198 6.27.05 11.893-1.898 15.383-.257.37.068 2.28.748 3.49 1.628 2.88 3.257 2.97 4.885.27.68-1.13.998-3 .734-3.42-2-3.75-2.13-9.538-1.9-15.89 1-.488 1.97-1.458 2.62-2.91 1.85-4.136.12-13.71-4.07-13.71-4.184 0-5.92 9.575-4.07 13.71.73 1.62 1.84 2.653 2.96 3.07m55.176-3.027c.397-.89.62-1.628.697-2.252.06-.14.098-.292.098-.454v-9.966c0-.622-.503-1.127-1.125-1.127s-1.13.505-1.13 1.128v7.684c-.432-.097-.93-.155-1.482-.19v-7.49c0-.624-.504-1.13-1.127-1.13s-1.127.506-1.127 1.13v7.49c-.55.035-1.05.094-1.48.19v-7.682c0-.622-.507-1.127-1.13-1.127s-1.125.505-1.125 1.128v9.966c0 .162.034.315.097.455.08.624.3 1.363.7 2.25.725 1.62 1.84 2.654 2.955 3.074.2 6.27.05 11.89-1.896 15.38-.26.38.068 2.287.748 3.495 1.628 2.88 3.258 2.97 4.885.27.68-1.13 1-3.002.734-3.414-2.002-3.753-2.132-9.54-1.9-15.89.996-.49 1.963-1.46 2.614-2.913"/><path fill="#D71A21" d="M32.628 148.987c0 9.845 7.98 17.824 17.823 17.824 9.85 0 17.83-7.97 17.83-17.82 0-9.84-7.98-17.82-17.82-17.82s-17.823 7.98-17.823 17.825m30.455 0c0 6.976-5.654 12.63-12.63 12.63-6.976 0-12.63-5.654-12.63-12.63s5.654-12.632 12.63-12.632c6.976 0 12.63 5.658 12.63 12.633"/></svg>